# xmcd
#
# Track frame offsets:
#	150
#	12733
#	29542
#	44630
#	58778
#	73553
#	84258
#	95902
#	109111
#	122086
#	131940
#
# Disc length: 1989 seconds
#
# Revision: 1
# Processed by: cddbd v1.5.2PL0 Copyright (c) Steve Scherf et al.
# Submitted via: audiograbber 1.83.01
#
DISCID=a407c30b
DTITLE=Barry Wild - Hollywood to Malibu CD 1
DYEAR=1900
DGENRE=
TTITLE0=Got no reason
TTITLE1=Till the rivers all run dry
TTITLE2=Release me
TTITLE3=I want to wake up with you
TTITLE4=If not you
TTITLE5=Walk through this world with me
TTITLE6=Separete ways
TTITLE7=Spanish eyes
TTITLE8=What now my love
TTITLE9=She´s not you
TTITLE10=Sweet Caroline
EXTD=
EXTT0=
EXTT1=
EXTT2=
EXTT3=
EXTT4=
EXTT5=
EXTT6=
EXTT7=
EXTT8=
EXTT9=
EXTT10=
PLAYORDER=
